<svg width="26" height="26" viewBox="0 0 26 26" fill="none" xmlns="http://www.w3.org/2000/svg">
<path d="M23.7137 0.499939H2.27952C1.29738 0.499939 0.49939 1.30909 0.49939 2.30239V23.6975C0.49939 24.6908 1.29738 25.4999 2.27952 25.4999H23.7137C24.6958 25.4999 25.4994 24.6908 25.4994 23.6975V2.30239C25.4994 1.30909 24.6958 0.499939 23.7137 0.499939ZM8.05519 21.9285H4.34984V9.99771H8.06077V21.9285H8.05519ZM6.20251 8.36824C5.0139 8.36824 4.05408 7.40284 4.05408 6.21981C4.05408 5.03677 5.0139 4.07137 6.20251 4.07137C7.38555 4.07137 8.35095 5.03677 8.35095 6.21981C8.35095 7.40842 7.39113 8.36824 6.20251 8.36824ZM21.9447 21.9285H18.2393V16.1249C18.2393 14.741 18.2114 12.9609 16.3141 12.9609C14.3833 12.9609 14.0876 14.4676 14.0876 16.0245V21.9285H10.3822V9.99771H13.9369V11.6272H13.9871C14.4838 10.6897 15.6947 9.70195 17.4972 9.70195C21.2472 9.70195 21.9447 12.174 21.9447 15.3883V21.9285Z" fill="#918E9B"/>
</svg>
